<svg width="24" height="24" viewBox="0 0 24 24" fill="none" xmlns="http://www.w3.org/2000/svg">
<path d="M24.0002 2.43363C20.7722 1.91114 18.3745 2.52863 16.8073 4.2861C15.24 6.04357 14.4564 8.63227 14.4564 12.0522V21.742H24.0002V12.0522H19.088C18.8307 10.3422 19.0646 8.95289 19.7897 7.88416C20.5383 6.81543 21.7546 6.35231 23.4388 6.49481L24.0002 2.43363ZM9.5441 2.43363C6.31603 1.91114 3.91837 2.52863 2.35112 4.2861C0.78387 6.04357 0.000244141 8.63227 0.000244141 12.0522V21.742H9.5441V12.0522H4.63182C4.37451 10.3422 4.60843 8.95289 5.33358 7.88416C6.08212 6.81543 7.29849 6.35231 8.9827 6.49481L9.5441 2.43363Z" fill="white"/>
</svg>
